<svg xmlns="http://www.w3.org/2000/svg" width="126.068" height="184.39" viewBox="0 0 126.068 184.39"><defs><style>.a{opacity:0.3;}.b{fill:#371a45;}.c{fill:#fff;}.d{opacity:0.35;}.e{fill:#4a83ff;}.f{fill:#a34f31;}.g{fill:#6b184e;}.h{fill:#bf943d;}.i{fill:#ec1c24;}.j{fill:#ffce00;}.k{opacity:0.7;}.l{fill:#220f2d;}</style></defs><g transform="translate(-0.002 0)"><g class="a"><ellipse class="b" cx="50.65" cy="9.15" rx="50.65" ry="9.15" transform="translate(24.19 166.09)"/></g><path class="c" d="M57.16,76.78,52.4,91.88C45.08,94,26.78,90.66,14.16,82,8.71,78.25,4.32,73.5,2.33,67.73-3.51,50.81,11.59,49.78,17.4,53.45c4.52,2.85,7.86,6.64,11.93,10.39C35.18,69.22,42.56,74.5,57.16,76.78Z"/><g class="d"><path class="b" d="M54,86.73l-1.6,5.15C45.08,94,26.78,90.66,14.15,82,8.71,78.25,4.32,73.5,2.33,67.73c-2.17-6.3-1.45-10.38.6-12.85a19.94,19.94,0,0,0,1.29,7.58l.1.27A6.49,6.49,0,0,0,14.87,65c.64-.61,1.08-.92,1.08-.63,0,5.76-1.79,10.29.1,12.37C26.26,87.93,46.54,88.64,54,86.73Z"/></g><path class="e" d="M57.16,76.78l-2.19,7-2.57,8.1a19.15,19.15,0,0,1-4.7.6c-8.78.17-23.1-3.32-33.55-10.52,8.56-4.25,13.05-12.62,15.18-18.12A49,49,0,0,0,39.09,71a50.19,50.19,0,0,0,13.48,4.9C54,76.24,55.54,76.52,57.16,76.78Z"/><g class="d"><path class="b" d="M57.16,76.78,52.4,91.88C45.08,94,26.78,90.66,14.15,82a25,25,0,0,0,3.75-2.28,67.44,67.44,0,0,0,20.65,7.43A15.41,15.41,0,0,0,56,76.59h0Z"/></g><path class="b" d="M47,93.5c-7,0-16.61-2.19-24.82-5.92a55.5,55.5,0,0,1-8.58-4.79C7.4,78.53,3.3,73.56,1.38,68c-3-8.68-.54-13,2.06-15,4-3.18,10.73-2.77,14.49-.39a55,55,0,0,1,8.94,7.51c1,1,2.07,2,3.16,3a52.291,52.291,0,0,0,5.83,4.73c5.88,4.06,12.7,6.58,21.46,8a1.012,1.012,0,0,1-.31,2c-9.07-1.41-16.15-4-22.29-8.28a55,55,0,0,1-6-4.9q-1.665-1.5-3.19-3a54.319,54.319,0,0,0-8.62-7.25c-3.12-2-8.89-2.35-12.18.26-3,2.38-3.48,6.8-1.4,12.8,1.77,5.13,5.62,9.77,11.44,13.77A52.829,52.829,0,0,0,23,85.76c11.39,5.16,23.76,6.68,29.13,5.16a1,1,0,0,1,.55,1.93A21.57,21.57,0,0,1,47,93.5Z"/><path class="c" d="M35.8,69.86c-2.07,7.65-7.4,13.23-12.13,16.86A2.58,2.58,0,0,1,21,87c-1.4-.67-2.78-1.4-4.11-2.17a2.59,2.59,0,0,1-.17-4.37,29.641,29.641,0,0,0,5.22-4.57,39.32,39.32,0,0,0,6.54-9.75,2.6,2.6,0,0,1,4-.91c.75.63,1.54,1.25,2.36,1.86a2.61,2.61,0,0,1,.96,2.77Z"/><g class="d"><path class="b" d="M34.2,74.2A35.06,35.06,0,0,1,23.67,86.72,2.58,2.58,0,0,1,21,87c-1.4-.67-2.78-1.4-4.11-2.17a2.59,2.59,0,0,1-.17-4.37c.6-.41,1.2-.86,1.79-1.34a2.59,2.59,0,0,0,1.06,1.17q2,1.15,4.11,2.16a2.58,2.58,0,0,0,2.71-.28A38.12,38.12,0,0,0,34.2,74.2Z"/></g><path class="b" d="M22.09,88.26a3.46,3.46,0,0,1-1.56-.36c-1.45-.69-2.86-1.43-4.18-2.2a3.59,3.59,0,0,1-.24-6.06,29.48,29.48,0,0,0,5.05-4.42,38.67,38.67,0,0,0,6.37-9.5,3.59,3.59,0,0,1,5.57-1.26c.79.65,1.55,1.25,2.32,1.82a3.59,3.59,0,0,1,1.35,3.84h0c-2.2,8.15-8,14-12.49,17.4a3.59,3.59,0,0,1-2.19.74ZM30.8,65.63a2.211,2.211,0,0,0-.35,0,1.6,1.6,0,0,0-1.1.89,40.54,40.54,0,0,1-6.7,10,30.741,30.741,0,0,1-5.4,4.73,1.59,1.59,0,0,0,.1,2.67c1.28.75,2.65,1.46,4,2.14a1.61,1.61,0,0,0,1.66-.17c4.24-3.26,9.72-8.73,11.77-16.33h0a1.57,1.57,0,0,0-.61-1.7c-.8-.6-1.59-1.22-2.4-1.9A1.6,1.6,0,0,0,30.8,65.63Zm5,4.23Z"/><path class="c" d="M116.28,125c-5.77,7.52-20.8,4.91-20.8,4.91l-.13-50.83V68.81s8.57.23,15.08,2.92c3.14,1.3,5.79,3.17,6.79,5.85C120.66,87,121,118.86,116.28,125Z"/><g class="d"><path class="b" d="M119.79,98.83c.2,11.15-.85,22.73-3.51,26.21-5.77,7.52-20.8,4.91-20.8,4.91l-.15-61.09h.45l.12,47.63s15,2.61,20.79-4.91C118.26,109.56,119.27,104.73,119.79,98.83Z"/></g><path class="b" d="M101.4,131.41a37.421,37.421,0,0,1-6.09-.47,1,1,0,1,1,.34-1.98c.15,0,14.5,2.42,19.83-4.53,4.39-5.73,4.3-37,.78-46.46-2.8-7.53-20.78-8.11-21-8.11a1,1,0,0,1,0-2c.8,0,19.53.62,22.79,9.43,1.68,4.52,2.75,14.66,2.68,25.24,0,5.54-.49,18.88-3.75,23.13C113.41,130.43,106.46,131.41,101.4,131.41Z"/><path class="c" d="M118.69,103.52l-10.24.77a2,2,0,0,0-1.83,1.64c-.6,3.31-1.58,11,1.63,13.55a7.91,7.91,0,0,0,9.53-.29c2.84-2.4,3.12-10,3.07-13.69a2,2,0,0,0-2.16-1.98Z"/><g class="d"><path class="b" d="M106.62,105.93c-.6,3.31-1.58,11,1.63,13.55a7.92,7.92,0,0,0,9.54-.29c1.74-1.47,2.52-4.9,2.85-8.19a8.67,8.67,0,0,1-2.09,3.85c-5.16,5-9-.89-9-.89s-.67,1.43-1.21,1.51c-2.22.34-1.76-6.63-1.44-10.24a2.12,2.12,0,0,0-.28.7Z"/></g><path class="b" d="M112.76,122a8.31,8.31,0,0,1-5.13-1.68c-3.52-2.79-2.76-10.29-2-14.52a3,3,0,0,1,2.74-2.46l10.24-.77h0a3,3,0,0,1,3.25,3c.06,5.22-.48,12-3.43,14.47A8.81,8.81,0,0,1,112.76,122Zm6-17.43-10.24.77a1,1,0,0,0-.91.82c-1.15,6.34-.68,11,1.26,12.58a6.91,6.91,0,0,0,8.27-.26c1.78-1.51,2.79-6.34,2.71-12.92a1,1,0,0,0-1.09-1Z"/><path class="b" d="M110.45,111.85c.11,1.29.11,2.51.19,3.73a19.251,19.251,0,0,0,.51,3.53,7.28,7.28,0,0,0,1.46,3,5.09,5.09,0,0,0,2.67,1.54h0a1.027,1.027,0,0,1-.47,2h-.06a7.88,7.88,0,0,1-1.93-.9,6.67,6.67,0,0,1-1.58-1.46,8.84,8.84,0,0,1-1.58-3.74,19.229,19.229,0,0,1-.32-3.83c0-1.25.08-2.51,0-3.69h0a.531.531,0,0,1,1.06-.07Z"/><path class="b" d="M112.64,77.25c-.94.08-1.9.19-2.85.32s-1.89.28-2.83.45-1.87.38-2.8.6-1.83.48-2.74.75h0a1,1,0,0,1-.58-1.92h.1c1-.19,1.94-.36,2.91-.49s2-.25,2.93-.33,2-.14,2.92-.18,2,0,2.94,0a.42.42,0,0,1,.42.44.43.43,0,0,1-.4.42Z"/><g class="d"><path class="b" d="M110.41,71.77a43.21,43.21,0,0,1-15.06,7.35V68.85S103.9,69.08,110.41,71.77Z"/></g><path class="c" d="M75.36,166.89C71,177,52.23,175.36,47.5,171.16s3.92-9.68,3.92-9.68c-1.84-3.11-2.84-7.54-3.34-12.22A100.111,100.111,0,0,1,47.8,134c.22-4.47.61-7.57.61-7.57L76,111.51a66.611,66.611,0,0,1-1.8,14.29,53.82,53.82,0,0,0-.95,19.64,66.822,66.822,0,0,0,1.34,6.76C76,158,77.37,162.23,75.36,166.89Z"/><path class="e" d="M73.29,145.44a66.819,66.819,0,0,0,1.34,6.76,45.93,45.93,0,0,1-26.55-2.94A100.112,100.112,0,0,1,47.8,134c.22-4.47.61-7.57.61-7.57L76,111.51a66.611,66.611,0,0,1-1.8,14.29,53.82,53.82,0,0,0-.91,19.64Z"/><g class="d"><path class="b" d="M73.87,127.57q-.16.87-.3,1.71Q73.71,128.44,73.87,127.57Z"/></g><path class="b" d="M60,175.45c-5.6,0-10.87-1.54-13.12-3.54a4.68,4.68,0,0,1-1.79-4c.27-3,3.48-5.62,5-6.72-5.55-10.85-2.8-33.82-2.68-34.82a1.008,1.008,0,1,1,2,.25c0,.24-2.93,24.51,2.88,34.39a1,1,0,0,1-.34,1.36c-1.29.79-4.68,3.37-4.89,5.72a2.76,2.76,0,0,0,1.12,2.35c2.67,2.38,10.63,3.94,17.27,2.46,3.15-.7,7.27-2.37,9-6.38s.81-7.56-.42-12.56c-1.65-6.67-3.69-15-.76-28.35A65.44,65.44,0,0,0,75,111.5a1,1,0,0,1,1-1h0a1,1,0,0,1,1,1A66.23,66.23,0,0,1,75.22,126c-2.83,12.92-.85,21,.74,27.44,1.28,5.18,2.29,9.27.32,13.83-1.64,3.79-5.23,6.4-10.4,7.55a27.5,27.5,0,0,1-5.88.63Z"/><path class="b" d="M67.73,153.6c-6.09,0-14.4-.68-20-3.85a.75.75,0,0,1-.29-1,.76.76,0,0,1,1-.29c9.22,5.19,26.82,3.3,27,3.28a.755.755,0,0,1,.17,1.5,78.854,78.854,0,0,1-7.88.36Z"/><g class="d"><path class="b" d="M47.39,102c-.65,5.86-1,10.93-1.11,15.17A98,98,0,0,1,47.39,102Z"/></g><g class="d"><path class="b" d="M105.52,109.3c0-2.27-.17-4.71-.42-7.3a54.55,54.55,0,0,1,.42,7.3Z"/></g><path class="c" d="M69.58,141.32a42.48,42.48,0,0,0,20.07-3.53,26.13,26.13,0,0,0,14.22-15.37c3.85-10.91,1.08-35-9.37-62.44l-34-2.16C45,87.38,41.6,119.71,48,130.35a16.3,16.3,0,0,0,2.24,3c3.64,3.76,9.4,6,14.07,7.09"/><path class="e" d="M105.42,113.72a32.66,32.66,0,0,1-1.55,8.7,26.13,26.13,0,0,1-14.22,15.37,42.48,42.48,0,0,1-20.07,3.53l-5.3-.86c-4.67-1.11-10.43-3.33-14.07-7.09a16.48,16.48,0,0,1-2.24-3c-3.86-6.45-4.12-20.9-.27-37.86.81-3.57,1.39-7.11,2.57-10.85.58-1.84,1.62-3.84,2.3-5.72A145.21,145.21,0,0,1,60.5,57.82L94.5,60c2.06,5.42,3.83,10.72,5.31,15.8h0C104.2,90.93,106,104.25,105.42,113.72Z"/><path class="b" d="M49.79,85.65a7.771,7.771,0,0,1,0,1.07,4.623,4.623,0,0,1-.07,1,16.531,16.531,0,0,1-.34,2c-.25,1.33-.6,2.64-.93,3.95s-.59,2.64-.83,4-.47,2.66-.67,4a82.74,82.74,0,0,0-1,16.09,38.11,38.11,0,0,0,1.13,7.87,17.56,17.56,0,0,0,1.36,3.61,19.09,19.09,0,0,0,1,1.65,13.631,13.631,0,0,0,1.17,1.5A21.06,21.06,0,0,0,57,136.86c.59.29,1.2.56,1.81.81s1.25.44,1.89.63a17,17,0,0,1,1.87.7,7.111,7.111,0,0,1,.9.48,4.75,4.75,0,0,1,.88.65h0a.39.39,0,0,1,0,.54.32.32,0,0,1-.18.1,5.17,5.17,0,0,1-2.17.09,10.751,10.751,0,0,1-2-.54c-.66-.25-1.3-.54-1.95-.8s-1.29-.55-1.92-.86a23.06,23.06,0,0,1-7-4.92A16.6,16.6,0,0,1,47.85,132a21.052,21.052,0,0,1-1.11-1.85,19.44,19.44,0,0,1-1.53-4A39.76,39.76,0,0,1,44,117.88a84.171,84.171,0,0,1,1-16.5c.21-1.36.43-2.72.68-4.07l.39-2,.4-2a36.431,36.431,0,0,1,.93-4,11.93,11.93,0,0,1,1.74-3.79.36.36,0,0,1,.65.17Z"/><path class="b" d="M72.52,142.43c-1,0-2,0-3-.1a1,1,0,0,1,.14-2,41.22,41.22,0,0,0,19.59-3.44,25.29,25.29,0,0,0,13.69-14.79c3.37-9.56,1.84-32.14-9.14-61.15L60.44,58.82a1,1,0,1,1,.12-2l34,2.16a1,1,0,0,1,.87.64c9.84,25.78,13.62,51.15,9.39,63.13a27.27,27.27,0,0,1-14.77,16A43.4,43.4,0,0,1,72.52,142.43Z"/><path class="b" d="M72.52,142.43a27.348,27.348,0,0,1-3-.11,1,1,0,1,1,.14-2,41.22,41.22,0,0,0,19.59-3.44,25.29,25.29,0,0,0,13.69-14.79c3.71-10.54.91-32.37-7.14-55.61a1.006,1.006,0,1,1,1.9-.66c8.19,23.65,11,46,7.13,56.93a27.27,27.27,0,0,1-14.77,16A43.4,43.4,0,0,1,72.52,142.43Z"/><path class="b" d="M65,161.93a18.08,18.08,0,0,0-3.37-.78,16.72,16.72,0,0,0-3.38-.16c-.55,0-1.1.1-1.65.14a8.054,8.054,0,0,0-1.61.32c-.26.07-.53.1-.79.19l-.78.23c-.27.07-.52.17-.78.26s-.52.18-.79.26h-.09a1,1,0,0,1-.76-1.84,11.239,11.239,0,0,1,3.55-1.26,12,12,0,0,1,1.88-.22h.95a7.281,7.281,0,0,1,.93.07,14.66,14.66,0,0,1,3.61.81,12.6,12.6,0,0,1,3.23,1.69.155.155,0,0,1-.16.25Z"/><g class="d"><path class="b" d="M105.52,109.3c0,3.83-13.19-16-13.19-13.36,0,5.77,1.9,14.41,1.42,22.29-.12,2-.31,4-.5,5.67-.43,3.85-1.47,6.68-3.6,7.46a50.38,50.38,0,0,1-16.69,3c-1.09,0-2.22,0-3.38-.08-4.85-.27-16.13-2.45-20.83-8a9.61,9.61,0,0,1-.78-1c-1-1.59-1.59-4.31-1.69-8.07-.12,6.33.42,10.78,1.69,13.17l.06.09c-.08,1.05-.16,2.25-.23,3.59a3.587,3.587,0,0,0,.17.34c2.88,5.39,9.86,8.45,15.53,9.92a7.61,7.61,0,0,1,5.5,5.41c1.65,6.34,4.67,9.58,3.13,14.28-3.16,9.59-19.45,6.74-25.84,3a3.63,3.63,0,0,0,1.23,4.18c4.73,4.2,23.48,5.87,27.86-4.27,2.72-6.31-.73-11.9-2.07-21.45-.08-.57-.16-1.16-.22-1.76V142.3l-.06-.82h0a42.56,42.56,0,0,0,16.77-3.63,26.13,26.13,0,0,0,14.22-15.37,39.06,39.06,0,0,0,1.5-13.18Z"/></g><path class="c" d="M102.29,170.67c-4.38,10.14-23.13,8.47-27.86,4.28s3.91-9.68,3.91-9.68c-3.08-3.61-4.55-8.58-5.15-13.49a62.71,62.71,0,0,1,.65-17.63L103,115.29a66.611,66.611,0,0,1-1.8,14.29,53.07,53.07,0,0,0-.48,22.45C102.2,159.92,104.73,165,102.29,170.67Z"/><path class="e" d="M101.17,129.58a53.07,53.07,0,0,0-.48,22.45c-16.77,5.88-27.23-.09-27.5-.25a62.711,62.711,0,0,1,.65-17.63l11.08-8.65,18-10.21A66.609,66.609,0,0,1,101.17,129.58Z"/><g class="d"><path class="b" d="M101.17,129.58a53.07,53.07,0,0,0-.48,22.45c-16.77,5.88-27.23-.09-27.5-.25-.08-.6-.13-1.2-.18-1.79h.14a17.65,17.65,0,0,0,22.27-15.54,62.711,62.711,0,0,1,1.28-8.37c.51-2.35,1.06-5.06,1.42-8.09l4.85-2.74a66.61,66.61,0,0,1-1.8,14.33Z"/></g><g class="d"><path class="b" d="M101.16,129.64c-5.11,23.38,5.32,31.37,1.13,41.09-4.38,10.14-23.13,8.47-27.86,4.27A3.65,3.65,0,0,1,73,171.51c6.36,3.36,22.31,3.94,26.3-5.31,1.45-3.35-7.27-9.84-7.33-17.1A50.22,50.22,0,0,1,95.43,132c1.44-3.87,2.32-15.93,10.07-20.15a35.87,35.87,0,0,1-1.5,10.31c-.45.14-.95.29-1.51.43C102.1,125.2,101.62,127.56,101.16,129.64Z"/></g><path class="b" d="M74.17,134.27c0,2.71-.12,5.37-.21,8a77.629,77.629,0,0,0,.11,7.93,34,34,0,0,0,.5,3.91,28.5,28.5,0,0,0,.94,3.8A22.36,22.36,0,0,0,77,161.5a17.89,17.89,0,0,0,2.12,3.17A1,1,0,0,1,79,166.1l-.1.07h0c-.38.24-.8.54-1.19.83a8.71,8.71,0,0,0-1.13,1,10.361,10.361,0,0,0-1.87,2.13,3.61,3.61,0,0,0-.69,2.29,3.09,3.09,0,0,0,1.2,2,9.341,9.341,0,0,0,2.43,1.36,20.65,20.65,0,0,0,2.83.88,28.31,28.31,0,0,0,6,.71,27.344,27.344,0,0,0,3-.11,26.613,26.613,0,0,0,3-.46,16.1,16.1,0,0,0,5.4-2.18,11.581,11.581,0,0,0,2.14-1.86,10.089,10.089,0,0,0,1.48-2.38,11.94,11.94,0,0,0,.88-5.63,35.579,35.579,0,0,0-1.09-5.95c-.49-2-1-4-1.4-6.11a55.178,55.178,0,0,1-.89-6.28,51.729,51.729,0,0,1-.11-6.35,63.072,63.072,0,0,1,.62-6.3c.33-2.08.78-4.17,1.2-6.16s.65-4.06.94-6.07a48.741,48.741,0,0,1,1.1-6.09h0a.36.36,0,0,1,.43-.24.34.34,0,0,1,.24.25,18,18,0,0,1,.34,6.33,59.185,59.185,0,0,1-1.08,6.23c-.44,2.06-.87,4-1.18,6.06a59.211,59.211,0,0,0-.6,6.09,49.62,49.62,0,0,0,1,12.15c.39,2,.9,4,1.39,6a37.389,37.389,0,0,1,1.14,6.29,14.25,14.25,0,0,1-.12,3.32,13.4,13.4,0,0,1-.92,3.23,12.23,12.23,0,0,1-1.8,2.9,13.12,13.12,0,0,1-2.55,2.22,18.169,18.169,0,0,1-6.07,2.47,26.924,26.924,0,0,1-3.2.5c-1.08.09-2.15.13-3.22.12a30.58,30.58,0,0,1-6.39-.77,22.45,22.45,0,0,1-3.12-1,10.84,10.84,0,0,1-3-1.69c-.12-.09-.23-.2-.34-.3a3.343,3.343,0,0,1-.32-.33,4.859,4.859,0,0,1-.57-.76A4.43,4.43,0,0,1,72,172.6a4.68,4.68,0,0,1,.21-1.95A7.291,7.291,0,0,1,73,169a12.7,12.7,0,0,1,2.22-2.54q.61-.56,1.26-1.05c.44-.33.86-.64,1.36-.95L77.58,166a20.28,20.28,0,0,1-2.36-3.55,23.359,23.359,0,0,1-1.61-3.88,32.292,32.292,0,0,1-1-4c-.14-.68-.24-1.37-.35-2s-.18-1.37-.24-2.05a45.28,45.28,0,0,1-.12-8.23,33.091,33.091,0,0,1,.53-4.07,21.7,21.7,0,0,1,1.1-4A.34.34,0,0,1,74,134a.36.36,0,0,1,.22.32Z"/><path class="b" d="M86.78,155.24a33,33,0,0,1-13.92-2.78.76.76,0,0,1-.36-1,.74.74,0,0,1,1-.36c11.62,5.42,26.83.7,27,.65a.76.76,0,1,1,.46,1.44,51.36,51.36,0,0,1-14.18,2.05Z"/><path class="b" d="M93.46,167.25a1,1,0,0,1-.56-.17,15.88,15.88,0,0,0-14.18-.82,1.007,1.007,0,0,1-.75-1.87,17.94,17.94,0,0,1,16,1,1,1,0,0,1-.56,1.84Z"/><path class="b" d="M110.23,132.84a.54.54,0,0,0,0-.13v-.17l-.06-.34q-.08-.34-.18-.69a7,7,0,0,0-.59-1.31,5.15,5.15,0,0,0-2-1.95,6.319,6.319,0,0,0-.68-.29c-.24-.1-.49-.19-.74-.27-.5-.17-1-.32-1.51-.44a14.676,14.676,0,0,0-1.55-.29,11.512,11.512,0,0,0-1.52-.1h0a11.639,11.639,0,0,0-1.52.12,13.09,13.09,0,0,0-1.54.3,15.446,15.446,0,0,0-1.51.45c-.25.09-.5.17-.74.27a5.2,5.2,0,0,0-.67.31,5.08,5.08,0,0,0-2,1.94,6.22,6.22,0,0,0-.56,1.3c-.07.23-.13.45-.18.68a.727.727,0,0,0,0,.34v.29a2.37,2.37,0,1,1-3.31,1.43l.61-2a2,2,0,0,1,.1-.27l.09-.22.21-.43a7.9,7.9,0,0,1,.44-.81,9.929,9.929,0,0,1,1.08-1.49,7.52,7.52,0,0,1,3-2.12c.29-.11.58-.2.84-.27l.81-.21c.54-.13,1.08-.25,1.63-.35s1.1-.19,1.65-.24a11.863,11.863,0,0,1,1.71-.09h0a13.28,13.28,0,0,1,1.7.1c.56.06,1.11.15,1.65.26s1.09.22,1.63.36l.8.22a8,8,0,0,1,.83.27,7.59,7.59,0,0,1,2.92,2.12,10.241,10.241,0,0,1,1.06,1.48c.16.26.3.53.44.81a3.452,3.452,0,0,1,.19.42l.1.22a1.91,1.91,0,0,1,.09.26l.34,1.11a1.64,1.64,0,1,1-2.82-.59Z"/><rect class="f" width="47.48" height="34.61" rx="17.3" transform="translate(77.58 132.58)"/><path class="b" d="M120.83,168.19h-39A5.25,5.25,0,0,1,76.58,163V136.82a5.25,5.25,0,0,1,5.24-5.24h39a5.25,5.25,0,0,1,5.24,5.24V163a5.25,5.25,0,0,1-5.23,5.19Zm-39-34.61a3.24,3.24,0,0,0-3.23,3.24V163a3.23,3.23,0,0,0,3.23,3.23h39a3.23,3.23,0,0,0,3.23-3.23V136.82a3.24,3.24,0,0,0-3.23-3.24Z"/><g class="d"><path class="b" d="M121.45,153.33v-.69a4.23,4.23,0,0,0,3.61-4.19V140.7a4.23,4.23,0,0,0-4.23-4.24h-33v25.42h-6.3a4.24,4.24,0,0,1-4.24-4.24V163a4.24,4.24,0,0,0,4.24,4.24h39a4.24,4.24,0,0,0,4.24-4.24v-5.31a4.23,4.23,0,0,1-4.151,4.23v-7.23a1.45,1.45,0,0,0,.83-1.36Zm-5,8.55H92v-7.24a1.43,1.43,0,0,0,.83-1.31v-.64h23.63Z"/></g><g class="a"><path class="g" d="M87.87,136.46v16.23H81.82a4.24,4.24,0,0,1-4.24-4.24V140.7a4.24,4.24,0,0,1,4.24-4.24Z"/></g><rect class="f" width="47.48" height="16.23" rx="4.24" transform="translate(77.58 132.58)"/><g class="a"><path class="c" d="M125.06,136.82v3.56a4.23,4.23,0,0,0-4.23-4.24h-7.31v.05c0,1.95-2.46,3.53-5.5,3.53s-5.51-1.58-5.51-3.53a.09.09,0,0,1,0-.05H81.82a4.24,4.24,0,0,0-4.24,4.24v-3.56a4.24,4.24,0,0,1,4.24-4.24h39a4.23,4.23,0,0,1,4.24,4.24Z"/></g><path class="b" d="M120.83,149.81h-39a5.25,5.25,0,0,1-5.24-5.24v-7.75a5.25,5.25,0,0,1,5.24-5.24h39a5.25,5.25,0,0,1,5.24,5.24v7.75a5.25,5.25,0,0,1-5.24,5.24Zm-39-16.23a3.24,3.24,0,0,0-3.23,3.24v7.75a3.24,3.24,0,0,0,3.23,3.24h39a3.24,3.24,0,0,0,3.23-3.24v-7.75a3.24,3.24,0,0,0-3.23-3.24Z"/><rect class="h" width="4.15" height="34.72" rx="2.07" transform="translate(85.28 132.47)"/><g class="d"><path class="b" d="M92,133.93v2.53H87.87v-2.53a1.46,1.46,0,0,1,1.46-1.46h1.22A1.46,1.46,0,0,1,92,133.93Z"/></g><g class="a"><path class="g" d="M87.87,145.35v9.4a1.47,1.47,0,0,1-1.13-1.42v-6.56a1.46,1.46,0,0,1,1.13-1.42Z"/></g><rect class="i" width="4.15" height="34.72" rx="1.64" transform="translate(85.28 132.47)"/><rect class="i" width="4.15" height="34.72" rx="1.64" transform="translate(113.88 132.47)"/><path class="b" d="M87.79,168.19h-.87a2.64,2.64,0,0,1-2.64-2.64V134.11a2.64,2.64,0,0,1,2.64-2.64h.87a2.64,2.64,0,0,1,2.64,2.64v31.44A2.64,2.64,0,0,1,87.79,168.19Zm-.87-34.72a.64.64,0,0,0-.64.64v31.44a.64.64,0,0,0,.64.63h.87a.64.64,0,0,0,.64-.63V134.11a.64.64,0,0,0-.64-.64Z"/><path class="b" d="M116.39,168.19h-.87a2.64,2.64,0,0,1-2.64-2.64V134.11a2.64,2.64,0,0,1,2.64-2.64h.87a2.64,2.64,0,0,1,2.64,2.64v31.44A2.64,2.64,0,0,1,116.39,168.19Zm-.87-34.72a.64.64,0,0,0-.64.64v31.44a.64.64,0,0,0,.64.63h.87a.64.64,0,0,0,.64-.63V134.11a.64.64,0,0,0-.64-.64Z"/><rect class="j" width="6.11" height="9.48" rx="1.64" transform="translate(112.9 145.26)"/><path class="b" d="M117.37,155.75h-2.83a2.64,2.64,0,0,1-2.64-2.64V146.9a2.64,2.64,0,0,1,2.64-2.64h2.83A2.64,2.64,0,0,1,120,146.9v6.21a2.64,2.64,0,0,1-2.63,2.64Zm-2.83-9.49a.64.64,0,0,0-.63.64v6.21a.64.64,0,0,0,.63.63h2.83a.64.64,0,0,0,.63-.63V146.9a.64.64,0,0,0-.63-.64Z"/><rect class="j" width="6.11" height="9.48" rx="1.64" transform="translate(84.15 145.31)"/><path class="b" d="M88.66,155.75H85.83a2.65,2.65,0,0,1-2.64-2.64V146.9a2.64,2.64,0,0,1,2.64-2.64h2.83a2.64,2.64,0,0,1,2.64,2.64v6.21a2.64,2.64,0,0,1-2.64,2.64Zm-2.83-9.49a.64.64,0,0,0-.63.64v6.21a.64.64,0,0,0,.63.63h2.83a.64.64,0,0,0,.64-.63V146.9a.64.64,0,0,0-.64-.64Z"/><path class="c" d="M115.35,118.58c-.21,12.92-6,14.49-13.27,14.46-6.09,0-6.49-4.7-6.49-4.7a4.26,4.26,0,0,1-2.86-3.11c-.57-2.3,1.82-5.8,2.56-6.8l.21-.28a28.312,28.312,0,0,0,.25-4.15c0-.51,0-1.06,0-1.66a52.39,52.39,0,0,0-3.39-16.4l6-21.77C109,85.66,113.78,96.5,115.07,111.81c.06.7.11,1.4.15,2.11l.06,1C115.35,116.25,115.37,117.46,115.35,118.58Z"/><g class="d"><path class="b" d="M115.35,118.58c-.21,12.92-6,14.49-13.27,14.46-6.09,0-6.49-4.7-6.49-4.7a4.26,4.26,0,0,1-2.86-3.11,5,5,0,0,1,.3-2.72c.85,1.82,2.78.6,2.78.6s.18,6.31,6.27,6.35c7.11,0,12.78-1.47,13.24-13.52Q115.38,117.34,115.35,118.58Z"/></g><path class="e" d="M115.22,113.92c-7.07-.42-15.67-.1-19.47.08a51.4,51.4,0,0,0-3.42-18.06l2-10.17,4.06-11.6C109.5,86.18,114.2,97.48,115.22,113.92Z"/><g class="k"><path class="c" d="M115.22,113.92c-7.07-.42-15.67-.1-19.47.08v-2.2c4.37-.16,10.87-.28,16.43,0-.93-15-4.94-25.76-14.14-36.66l.35-1C109.5,86.18,114.2,97.48,115.22,113.92Z"/></g><path class="b" d="M94.59,110.29c-.2-1.19-.35-2.37-.51-3.56s-.32-2.38-.51-3.57-.4-2.38-.64-3.57-.49-2.39-.74-3.6a.15.15,0,0,1,.12-.17.12.12,0,0,1,.15.07,31.321,31.321,0,0,1,1.62,3.35c.47,1.15.89,2.32,1.25,3.52a32.07,32.07,0,0,1,.9,3.63,22.23,22.23,0,0,1,.36,3.73,1.007,1.007,0,0,1-2,.16Z"/><path class="b" d="M102.34,134h-.26c-5.48,0-7-3.48-7.36-5a5.28,5.28,0,0,1-3-3.62c-.69-2.81,2-6.67,2.79-7.71a35.329,35.329,0,0,0,.13-6.43,1,1,0,0,1,2-.12,34.171,34.171,0,0,1-.18,7.11,1.06,1.06,0,0,1-.2.46c-1.21,1.54-3,4.59-2.59,6.22a3.27,3.27,0,0,0,2.14,2.38,1,1,0,0,1,.75.88c0,.38.53,3.76,5.5,3.78,3.45,0,6.94-.29,9.2-2.66s3.37-7.2,3-14.36C113.37,98,108.7,86.74,97.59,74.78a1,1,0,1,1,1.47-1.37c11.47,12.35,16.29,24,17.2,41.41.42,7.85-.71,12.89-3.54,15.85S106.15,134,102.34,134Z"/><path class="b" d="M96.37,122.82l.22,5.41h0a1,1,0,1,1-2,.08v-.17l.67-5.39a.56.56,0,0,1,1.12,0Z"/><path class="c" d="M16.16,65.92c-1.18-4,2.9-7.31,2.9-7.31s-3.68-6.61-.81-8.4c1.54-1,5.8,3.57,6.79,6.53a20.63,20.63,0,0,1,1,5.82"/><path class="b" d="M16,66l-.24-.5c0-.09-.08-.17-.11-.26a2.68,2.68,0,0,1-.07-.27,3.5,3.5,0,0,1-.13-.56v-.58a6.34,6.34,0,0,1,.37-2.28,8.5,8.5,0,0,1,1.07-2c.22-.31.45-.61.7-.9s.26-.27.39-.41l.45-.42-.27,1.37a17.27,17.27,0,0,1-1.32-3,12.21,12.21,0,0,1-.64-3.39,4.64,4.64,0,0,1,.35-1.95c.07-.17.18-.33.27-.5a3.83,3.83,0,0,1,.36-.44l.21-.21.23-.17a1.85,1.85,0,0,1,.69-.33,2.43,2.43,0,0,1,1.32.07,4.33,4.33,0,0,1,.92.41,8.79,8.79,0,0,1,1.44,1,15.13,15.13,0,0,1,2.29,2.45,13.52,13.52,0,0,1,.92,1.4A10.79,10.79,0,0,1,25.89,56a1.665,1.665,0,0,0,.14.43l.11.4c.07.27.12.54.18.81a12.71,12.71,0,0,1,.19,1.63,10,10,0,0,1-.31,3.25.18.18,0,0,1-.22.11.14.14,0,0,1-.11-.11h0c-.35-1-.64-2-.95-3-.15-.48-.3-1-.46-1.43l-.24-.7-.13-.35-.12-.3a11.26,11.26,0,0,0-.67-1.22c-.26-.41-.54-.8-.83-1.19a16,16,0,0,0-1.93-2.16,7.85,7.85,0,0,0-1.07-.84,2.77,2.77,0,0,0-.5-.24c-.14-.06-.25,0-.22-.06h0l-.09.06-.07.07c-.06,0-.08.11-.13.15a.476.476,0,0,0-.11.2,2.43,2.43,0,0,0-.17,1.1,8.92,8.92,0,0,0,.63,2.71c.18.46.37.92.57,1.37s.43.91.64,1.32v.06a1.06,1.06,0,0,1-.3,1.31c-.09.06-.22.18-.33.27l-.33.33a7,7,0,0,0-.65.68,11.631,11.631,0,0,0-1.11,1.5,7.77,7.77,0,0,0-.75,1.69,7.46,7.46,0,0,0-.25,1.94h0A.484.484,0,0,1,16,66Z"/><g class="d"><path class="b" d="M115.35,118.58a1.79,1.79,0,0,1-.84.12,107.3,107.3,0,0,0-18.23-.07,1.74,1.74,0,0,1-1-.2l.21-.28a28.311,28.311,0,0,0,.25-4.15c0-.51,0-1.06,0-1.66a107.289,107.289,0,0,1,18.73-.68,1.61,1.61,0,0,1,.62.15c.06.7.11,1.4.15,2.11l.06,1C115.35,116.25,115.37,117.46,115.35,118.58Z"/></g><path class="c" d="M114.51,113.94a107.35,107.35,0,0,0-18.23-.06,1.78,1.78,0,0,1-1.93-1.68c0-.83-.1-1.72-.19-2.67a1.78,1.78,0,0,1,1.53-1.94,106.668,106.668,0,0,1,18.76-.69,1.76,1.76,0,0,1,1.64,1.56c.14,1.16.26,2.35.37,3.56a1.78,1.78,0,0,1-1.95,1.92Z"/><g class="d"><path class="b" d="M114.51,113.94a108.389,108.389,0,0,0-18.23-.06,1.78,1.78,0,0,1-1.93-1.68,7.932,7.932,0,0,0-.08-1.36,106.4,106.4,0,0,1,17.9.09,1.79,1.79,0,0,0,2-1.93c-.07-.72-.13-1.43-.2-2.13h.53a1.76,1.76,0,0,1,1.64,1.55q.21,1.76.36,3.57a1.77,1.77,0,0,1-1.99,1.95Z"/></g><path class="b" d="M114.69,115h-.28a106.341,106.341,0,0,0-18-.06,2.84,2.84,0,0,1-2.08-.68,2.7,2.7,0,0,1-.94-2,26.056,26.056,0,0,0-.19-2.62,2.76,2.76,0,0,1,2.4-3,106.689,106.689,0,0,1,19-.7,2.77,2.77,0,0,1,2.57,2.43c.14,1.18.26,2.39.37,3.61a2.79,2.79,0,0,1-.83,2.22,2.76,2.76,0,0,1-2.02.8Zm-.08-2a.76.76,0,0,0,.61-.21.77.77,0,0,0,.24-.63c-.1-1.19-.22-2.37-.36-3.52a.78.78,0,0,0-.71-.68,105.11,105.11,0,0,0-18.57.69.76.76,0,0,0-.66.84c.09.92.15,1.83.19,2.72a.75.75,0,0,0,.26.54.77.77,0,0,0,.58.19,108.739,108.739,0,0,1,18.42.06Z"/><path class="c" d="M96.74,66.15C90.1,71.9,62.13,102,62.13,102L54.07,71.91A144.579,144.579,0,0,1,60.5,57.82L94.5,60Q95.69,63.1,96.74,66.15Z"/><path class="c" d="M96.74,66.15C90.1,71.9,62.13,102,62.13,102L54.07,71.91A144.579,144.579,0,0,1,60.5,57.82L94.5,60Q95.69,63.1,96.74,66.15Z"/><path class="b" d="M62.13,103a.94.94,0,0,1-1-.74L53.1,72.17a1,1,0,0,1,0-.62,144.741,144.741,0,0,1,6.47-14.2,1,1,0,0,1,1-.53l34,2.16a1,1,0,0,1,.87.64c.78,2.05,1.54,4.13,2.26,6.2a1,1,0,0,1-.29,1.09c-6.52,5.65-34.26,35.47-34.54,35.77A1,1,0,0,1,62.13,103Zm-7-31,7.5,28C68,94.2,89,71.75,95.57,65.85c-.57-1.64-1.17-3.29-1.78-4.91l-32.7-2.08A142.393,142.393,0,0,0,55.13,72Z"/><path class="b" d="M62.13,103a.94.94,0,0,1-1-.74L53.1,72.17a1,1,0,0,1,0-.62,144.741,144.741,0,0,1,6.47-14.2,1,1,0,0,1,1-.53l34,2.16a1,1,0,0,1,.87.64c.78,2.05,1.54,4.13,2.26,6.2a1,1,0,0,1-.29,1.09c-1.52,1.31-4.31,4-8.31,8.13C78.56,85.8,63,102.52,62.86,102.68a1,1,0,0,1-.73.32Zm-7-31,7.5,28c3.9-4.18,16.21-17.35,25-26.36,3.63-3.7,6.28-6.31,7.91-7.78-.57-1.64-1.17-3.29-1.78-4.91l-32.7-2.08A142.387,142.387,0,0,0,55.13,72Z"/><path class="i" d="M63.58,77.49,61.71,80a1.62,1.62,0,0,0-.18,1.63l1.3,2.9a1.59,1.59,0,0,0,1.4.95l2.08.1A1.6,1.6,0,0,0,67.59,85l2.21-2.5a1.62,1.62,0,0,0,.12-2l-2-3a1.61,1.61,0,0,0-1.33-.7H64.87A1.63,1.63,0,0,0,63.58,77.49Z"/><path class="b" d="M66.39,86.56h-.12l-2.09-.09a2.62,2.62,0,0,1-2.27-1.55L60.61,82a2.59,2.59,0,0,1,.3-2.64l1.87-2.49h0a2.61,2.61,0,0,1,2.09-1h1.67A2.63,2.63,0,0,1,68.7,77l2,3a2.6,2.6,0,0,1-.19,3.2l-2.2,2.51a2.62,2.62,0,0,1-1.92.85Zm-2-8.47-1.87,2.49a.63.63,0,0,0-.07.62l1.3,2.9a.62.62,0,0,0,.53.36l2.09.1a.6.6,0,0,0,.48-.21l2.2-2.5a.6.6,0,0,0,0-.75l-2-3a.61.61,0,0,0-.5-.26H64.87a.63.63,0,0,0-.49.24Z"/><path class="b" d="M63.07,141.15a1,1,0,0,1-1-.79,111.15,111.15,0,0,1-1-38.54,1.017,1.017,0,1,1,2,.37,109,109,0,0,0,1,37.76,1,1,0,0,1-.78,1.18.75.75,0,0,1-.22.02Z"/><g class="d"><path class="b" d="M99.81,75.78h0a38,38,0,0,1-2.94,2.6,40.55,40.55,0,0,1-27.21,8.86,22.828,22.828,0,0,1-2.32-.17A39.481,39.481,0,0,1,61,85.9a40.352,40.352,0,0,1-5.13-1.76l-.91-.4a38.2,38.2,0,0,1-4.29-2.25l-.52-.32c-.62-.38-1.22-.78-1.8-1.19a40.68,40.68,0,0,1-9.27-9,50.19,50.19,0,0,0,13.48,4.9A145.211,145.211,0,0,1,60.5,57.82L94.5,60C96.56,65.4,98.33,70.7,99.81,75.78Z"/></g><path class="c" d="M33.46,55.1A40.12,40.12,0,0,0,44.93,71.92a40.93,40.93,0,0,0,3.43,2.68c.58.41,1.18.81,1.8,1.19a39.871,39.871,0,0,0,5.72,3A40.35,40.35,0,0,0,61,80.52a39.48,39.48,0,0,0,6.32,1.18c.77.08,1.55.14,2.32.17A40.46,40.46,0,0,0,81.43,2.23C81,2.11,80.5,2,80,1.9c-1.25-.27-2.51-.48-3.77-.63a40.37,40.37,0,0,0-8.72-.06A39.59,39.59,0,0,0,59.05,3c-.88.28-1.74.59-2.6.94a37.849,37.849,0,0,0-3.78,1.75A40.47,40.47,0,0,0,33.46,55.1Z"/><path class="b" d="M71.5,82H69.65a22.61,22.61,0,0,1-2.33-.17A39.59,39.59,0,0,1,61,80.62a40.451,40.451,0,0,1-5.14-1.77,41.611,41.611,0,0,1-5.74-3c-.67-.42-1.26-.82-1.8-1.2A39.738,39.738,0,0,1,44.86,72,40.55,40.55,0,0,1,52.63,5.59a39.679,39.679,0,0,1,3.78-1.76c.84-.33,1.72-.65,2.61-.94a39.89,39.89,0,0,1,8.51-1.78,40.629,40.629,0,0,1,8.75.06c1.25.15,2.53.36,3.78.63.5.11,1,.21,1.4.33A40.56,40.56,0,0,1,71.5,82Zm.1-80.9a39.091,39.091,0,0,0-4,.21,40.13,40.13,0,0,0-8.47,1.77c-.88.29-1.75.6-2.59.94A40.38,40.38,0,0,0,45,71.85a39.778,39.778,0,0,0,3.42,2.67c.53.38,1.12.77,1.79,1.19a41.151,41.151,0,0,0,5.71,3A38.49,38.49,0,0,0,61,80.42a39.23,39.23,0,0,0,6.31,1.18c.77.08,1.55.13,2.32.17h1.84A40.36,40.36,0,0,0,81.41,2.32C81,2.21,80.51,2.1,80,2c-1.24-.27-2.51-.48-3.76-.63A40.151,40.151,0,0,0,71.6,1.1Z"/><g class="d"><path class="b" d="M105.88,62.84a40.45,40.45,0,0,1-36.23,19,22.622,22.622,0,0,1-2.32-.17A39.478,39.478,0,0,1,61,80.52a40.351,40.351,0,0,1-5.13-1.76,39.869,39.869,0,0,1-5.72-3c-.62-.38-1.22-.78-1.8-1.19a40.931,40.931,0,0,1-3.43-2.68A40.12,40.12,0,0,1,33.46,55.1a40.82,40.82,0,0,1-2.28-10.87,40.2,40.2,0,0,0,11.15,16,39.36,39.36,0,0,0,3.43,2.68c.58.41,1.18.8,1.8,1.19a40.84,40.84,0,0,0,5.72,3A39.77,39.77,0,0,0,64.73,70c.77.08,1.55.14,2.32.18a40.47,40.47,0,0,0,42.24-43.2,40.39,40.39,0,0,1-3.41,35.86Z"/></g><path class="b" d="M71.5,82.69H69.62q-1.19-.06-2.37-.18A40.652,40.652,0,0,1,49.8,76.49c-.69-.43-1.29-.83-1.84-1.21a43.17,43.17,0,0,1-3.49-2.73A41.23,41.23,0,0,1,52.31,5a38.7,38.7,0,0,1,3.85-1.78c.86-.35,1.75-.67,2.65-1A41.88,41.88,0,0,1,67.46.43a41.37,41.37,0,0,1,8.9.07c1.27.15,2.57.37,3.84.64l1.43.33A41.24,41.24,0,0,1,71.5,82.69Zm.1-80.91c-1.33,0-2.66.07-4,.2a39.5,39.5,0,0,0-8.32,1.75c-.87.28-1.73.59-2.55.92A40.468,40.468,0,0,0,53,6.36,39.71,39.71,0,0,0,34.19,54.84h0a39.67,39.67,0,0,0,11.25,16.5A41.6,41.6,0,0,0,48.8,74c.53.38,1.11.76,1.77,1.18A40.251,40.251,0,0,0,56.18,78a39.77,39.77,0,0,0,11.23,2.89c.76.07,1.52.13,2.28.17H71.5A39.69,39.69,0,0,0,81.24,3c-.43-.11-.88-.22-1.36-.32-1.23-.26-2.48-.47-3.71-.61A38.66,38.66,0,0,0,71.6,1.78Z"/><path class="b" d="M71.5,82.92H69.6c-.64,0-1.58-.09-2.37-.17a41.15,41.15,0,0,1-6.48-1.21A41.74,41.74,0,0,1,49.63,76.7c-.69-.44-1.29-.84-1.85-1.23a43.1,43.1,0,0,1-3.51-2.74A41.46,41.46,0,0,1,32.51,55.44h0A41.46,41.46,0,0,1,52.21,4.79,39.27,39.27,0,0,1,56.08,3c.86-.35,1.75-.67,2.66-1A41.69,41.69,0,0,1,67.44.21a41.11,41.11,0,0,1,8.94.07c1.29.15,2.59.36,3.87.64.5.11,1,.22,1.44.34A41.46,41.46,0,0,1,71.5,82.92ZM71.6,2a37.368,37.368,0,0,0-4,.2,39.59,39.59,0,0,0-8.28,1.73c-.87.28-1.72.59-2.54.92-1.27.51-2.51,1.09-3.68,1.7A39.49,39.49,0,0,0,34.4,54.76h0a39.35,39.35,0,0,0,14.53,19c.53.37,1.11.75,1.76,1.16A39.41,39.41,0,0,0,67.44,80.7c.74.08,1.51.13,2.26.17h1.8A39.46,39.46,0,0,0,81.19,3.2c-.44-.11-.88-.22-1.36-.32-1.22-.26-2.46-.47-3.68-.61A38.44,38.44,0,0,0,71.6,2Z"/><path class="b" d="M38.17,64.33c20.89,20,54.55,13.24,60.59-14.75,4.12-19-11.35-37.77-29.89-40.55-13.5-2-27.56,1.91-36.42,22,0,0-2.55,9.5-.93,16.34a93.479,93.479,0,0,0,4.36,13.21Z"/><path class="l" d="M98.76,49.58c-6,28-39.7,34.73-60.59,14.75l-.46-.76c25,8.58,53.12-2.88,59.75-31.07a30.43,30.43,0,0,1,1.3,17.08Z"/><path class="b" d="M66.05,81a44.11,44.11,0,0,1-10.41-1.26h-.15a42.769,42.769,0,0,1-5.86-3c-.69-.44-1.29-.84-1.85-1.23a43.1,43.1,0,0,1-3.51-2.74A41.46,41.46,0,0,1,32.51,55.44h0A41.46,41.46,0,0,1,52.21,4.79a.64.64,0,0,1,.19-.08,40.34,40.34,0,0,1,17.07-.8,42.82,42.82,0,0,1,28.22,18C103.8,30.75,106,41,103.91,50.69c-2.29,10.57-8.06,19-16.68,24.41A40,40,0,0,1,66.05,81ZM56.2,77.8a39.28,39.28,0,0,0,30-4.4c8.16-5.11,13.62-13.11,15.78-23.13,2-9.18-.11-18.84-5.9-27.22A40.85,40.85,0,0,0,69.17,5.89a38.69,38.69,0,0,0-16.12.72A39.48,39.48,0,0,0,34.4,54.76h0a39.35,39.35,0,0,0,14.53,19c.53.37,1.11.75,1.76,1.16A38.9,38.9,0,0,0,56.2,77.8Z"/><path class="b" d="M66,76.85A41.54,41.54,0,0,1,37.47,65.06a1.16,1.16,0,0,1-.16-.21L35,61.09A.75.75,0,0,1,35,61a92.859,92.859,0,0,1-4.41-13.38c-1.67-7,.82-16.43.93-16.83a.78.78,0,0,1,.05-.14C39.28,13.07,51.89,5.47,69,8A38.23,38.23,0,0,1,94.2,24.1c5.45,7.89,7.42,17,5.55,25.69C97,62.33,88.67,71.61,76.78,75.25A36.73,36.73,0,0,1,66,76.85ZM39,63.7c10.33,9.82,24.58,13.51,37.23,9.63,11.17-3.42,19-12.16,21.59-24,1.76-8.14-.1-16.7-5.23-24.13A36.25,36.25,0,0,0,68.72,10c-16.1-2.41-28,4.77-35.32,21.34-.23.87-2.37,9.57-.9,15.77a91.55,91.55,0,0,0,4.28,13Z"/><ellipse class="c" cx="14.47" cy="10.51" rx="14.47" ry="10.51" transform="translate(93.753 62.885) rotate(-81.72)"/><path class="b" d="M105.26,65.48h-.39a9.35,9.35,0,0,1-6.66-3.38c-2.67-3.07-3.95-7.66-3.49-12.58.78-8.46,6.55-15.11,12.89-14.82a9.27,9.27,0,0,1,6.65,3.38,16.593,16.593,0,0,1,3.5,12.58C117,58.93,111.44,65.48,105.26,65.48Zm1.95-28.79c-5.15,0-9.83,5.74-10.5,13-.39,4.32.73,8.46,3,11.08A7.32,7.32,0,0,0,105,63.46c5.27.25,10.12-5.59,10.81-13l1,.09-1-.09c.39-4.32-.73-8.46-3-11.08a7.34,7.34,0,0,0-5.23-2.69Z"/><ellipse class="c" cx="11.48" cy="8.56" rx="11.48" ry="8.56" transform="translate(99.03 61.371) rotate(-79.76)"/><path class="b" d="M108.59,63.1A6.52,6.52,0,0,1,105,62c-4.14-2.69-5.49-9.54-3-15.28a10.79,10.79,0,0,1,6.41-6.34,6.54,6.54,0,0,1,5.64.79c4.14,2.68,5.49,9.54,3,15.28a10.75,10.75,0,0,1-6.41,6.33A6.86,6.86,0,0,1,108.59,63.1Zm1.82-22.81a6.88,6.88,0,0,0-2,.3,10.63,10.63,0,0,0-6.28,6.22c-2.44,5.65-1.12,12.39,2.94,15a6.35,6.35,0,0,0,5.46.76,10.55,10.55,0,0,0,6.28-6.22c2.44-5.65,1.13-12.39-2.93-15A6.41,6.41,0,0,0,110.41,40.29Z"/><g class="d"><path class="b" d="M101,55.69a13.83,13.83,0,0,1,.62-6.47c1.18,4.84,5.27,7.15,9.5,5.18a12.24,12.24,0,0,0,6-7.23c.07.3.13.62.19.95.84,5.47-2.12,11.6-6.62,13.69S101.85,61.16,101,55.69Z"/></g><path class="b" d="M108.65,64h-.24a6.85,6.85,0,0,1-5-2.52c-2.17-2.47-3.22-6.44-2.82-10.61.68-7,5.2-12.51,10.12-12.33a6.88,6.88,0,0,1,5,2.51c2.16,2.48,3.22,6.44,2.81,10.61l-1-.09,1,.09C117.86,58.56,113.46,64,108.65,64Zm1.84-23.46c-3.8,0-7.3,4.67-7.87,10.53-.35,3.63.52,7,2.33,9.09A4.91,4.91,0,0,0,108.48,62h.18c3.79,0,7.3-4.66,7.87-10.52h0c.35-3.63-.52-7-2.33-9.1a4.93,4.93,0,0,0-3.53-1.82Z"/><g class="k"><path class="c" d="M77.34,17.5S59,15.94,47.49,24.88h0A17.27,17.27,0,0,0,42,32.16a35.1,35.1,0,0,0-2.33,9.09c-1,7.61-.06,11.36-.06,11.36C35.83,48,34,43.13,34.77,36.79c.08-.63.19-1.27.31-1.92a1.821,1.821,0,0,1,.1-.45h0a44.069,44.069,0,0,1,1.63-4.89c2.28-5.64,6.61-12.82,14.41-15.38C65.8,9.34,78.07,16.79,77.34,17.5Z"/></g><g class="k"><ellipse class="c" cx="5.41" cy="6.3" rx="5.41" ry="6.3" transform="translate(82.208 32.464) rotate(-7.41)"/></g><g class="k"><ellipse class="c" cx="2.23" cy="2.6" rx="2.23" ry="2.6" transform="translate(87.119 47.304) rotate(-12.25)"/></g><path class="b" d="M62,103.84a1,1,0,0,1-.76-.34L52.55,93.42a1,1,0,0,1-.2-1l1-3.29L50.71,87.7a1,1,0,0,1-.52-.88V76.42a1,1,0,0,1,2,0v9.8l2.9,1.58a1,1,0,0,1,.47,1.2l-1.13,3.55,7.87,9.13L78.88,96l.65-5.14a1,1,0,0,1,.68-.83L91.36,86.3l.5-10.15a1,1,0,1,1,2,.1L93.33,87a1,1,0,0,1-.68.9L81.44,91.7l-.65,5.14a1,1,0,0,1-.67.82l-17.81,6.13A1,1,0,0,1,62,103.84Z"/><path class="i" d="M67.37,85.22l.99,10.11L62.13,102l-2.28-8.48,3.17-8.69Z"/><path class="b" d="M62.13,103a.94.94,0,0,1-1-.74l-2.28-8.48a1.06,1.06,0,0,1,0-.61l3.17-8.68a1,1,0,0,1,1-.66l4.35.39a1,1,0,0,1,.91.9l1,10.11a1,1,0,0,1-.27.79l-6.23,6.67a1,1,0,0,1-.65.31ZM60.9,93.56,62.63,100l4.69-5-.87-8.83L63.7,85.9Z"/><path class="b" d="M70.2,89.48a1,1,0,0,1-.8-.4l-2.61-3.46a1.007,1.007,0,0,1,1.61-1.21l2.09,2.79,8.31-4.3a1,1,0,1,1,.93,1.78l-9.07,4.69A1,1,0,0,1,70.2,89.48Z"/><path class="b" d="M60.38,87.79a1,1,0,0,1-.73-.31L56.4,84a1,1,0,0,1,1.46-1.38l2.69,2.85,1.79-1.11a1,1,0,1,1,1.06,1.7L60.91,87.6A1,1,0,0,1,60.38,87.79Z"/><circle class="b" cx="1.57" cy="1.57" r="1.57" transform="translate(63.38 106.17)"/><circle class="b" cx="1.57" cy="1.57" r="1.57" transform="translate(63.38 114.6)"/><circle class="b" cx="1.57" cy="1.57" r="1.57" transform="translate(63.64 123.32)"/></g></svg>