<svg xmlns="http://www.w3.org/2000/svg" xmlns:xlink="http://www.w3.org/1999/xlink" viewBox="0 0 464.66 404.19"><defs><style>.cls-1{fill:url(#linear-gradient);}</style><linearGradient id="linear-gradient" y1="202.09" x2="464.66" y2="202.09" gradientUnits="userSpaceOnUse"><stop offset="0" stop-color="#d9550b"/><stop offset="0.47" stop-color="#eb8217"/><stop offset="1" stop-color="#f0c81b"/></linearGradient></defs><g id="Layer_2" data-name="Layer 2"><g id="DESIGNED_BY_FREEPIK" data-name="DESIGNED BY FREEPIK"><path class="cls-1" d="M207.81,404.19l-.19-.08a5.94,5.94,0,0,1-1.36-.36l-.59-.07-.76-.61a3.35,3.35,0,0,1-.47-.39,6.12,6.12,0,0,1-.81-.76l-.08-.1-.2-.15-.44-.71L.83,51a4.59,4.59,0,0,1-.41-1,5.62,5.62,0,0,1-.31-1A6.23,6.23,0,0,1,0,47.68a6,6,0,0,1,.11-1.23A5.51,5.51,0,0,1,.42,45.4a4.75,4.75,0,0,1,.42-1L24.9,2.76l.23-.22.22-.27A5.7,5.7,0,0,1,26,1.62a3.47,3.47,0,0,1,.37-.3A4.7,4.7,0,0,1,27,.86L27.5.59l.3-.08.33-.12a6.29,6.29,0,0,1,.92-.25l.44-.07A4,4,0,0,1,30.26,0h404.1a4,4,0,0,1,1,.13,5.53,5.53,0,0,1,1.09.25,6.08,6.08,0,0,1,1.11.53,5.75,5.75,0,0,1,1,.72,5.35,5.35,0,0,1,.76.8,4.34,4.34,0,0,1,.62.82l24.06,41.67.08.32.12.34a6.33,6.33,0,0,1,.24.88c0,.15.05.3.07.45a4.13,4.13,0,0,1,.08.78v.58l-.09.32-.06.35a7,7,0,0,1-.24.87c0,.15-.11.3-.17.44a3.22,3.22,0,0,1-.31.68L261.35,401.59l-.33.26a6.56,6.56,0,0,1-1.29,1.17,4.72,4.72,0,0,1-.72.44,6.39,6.39,0,0,1-2.93.73Zm44.5-13.06L446.82,54.22H291.15l16.22,28.1h80.06l.33.1a5.83,5.83,0,0,1,.75.17,7.92,7.92,0,0,1,.86.27,3.74,3.74,0,0,1,.73.34,4.45,4.45,0,0,1,.85.63,5.06,5.06,0,0,1,.8.76,6.36,6.36,0,0,1,.72,1,7,7,0,0,1,.52,1.11,6.29,6.29,0,0,1,.25,1.07,4.22,4.22,0,0,1,.13,1v.57l-.09.34a5.61,5.61,0,0,1-.17.74,6.14,6.14,0,0,1-.28.88,3.91,3.91,0,0,1-.34.75l-172.64,299Zm-43.77-6.53,77.85-134.82H253.93l-40.12,69.5-.23.18a6.37,6.37,0,0,1-1.77,1.54l-.69.39-.25,0a6.45,6.45,0,0,1-1.18.28,4.21,4.21,0,0,1-1.14.16,4.37,4.37,0,0,1-1.16-.16,6.36,6.36,0,0,1-1.17-.28l-.27,0-.71-.42a6.1,6.1,0,0,1-1.71-1.48l-.19-.15-.44-.72L137.52,205.37a4.22,4.22,0,0,1-.42-1,6.36,6.36,0,0,1-.31-1,6.18,6.18,0,0,1-.11-1.26,6,6,0,0,1,.11-1.23,6.22,6.22,0,0,1,.31-1.05,4,4,0,0,1,.42-1L197.24,95.38H164.79l-40.13,69.5-.23.18a6.57,6.57,0,0,1-1.57,1.41l-1,.55-.28,0a6.92,6.92,0,0,1-1.08.25,4.21,4.21,0,0,1-1.14.16,4.37,4.37,0,0,1-1.16-.16,5.82,5.82,0,0,1-1.08-.26l-.3,0-.77-.46a5.93,5.93,0,0,1-1.7-1.48l-.21-.16-.44-.72L30.26,19.58,14,47.69Zm0-82.32,16.23-28.1-40-69.31-.08-.31c0-.11-.09-.23-.13-.35a6,6,0,0,1-.23-.88,3.4,3.4,0,0,1-.07-.46,3.94,3.94,0,0,1-.08-.77v-.57l.09-.31.06-.37a7.72,7.72,0,0,1,.24-.88,3.83,3.83,0,0,1,.17-.43,3.42,3.42,0,0,1,.32-.7L224.77,130l-16.23-28.1L150.71,202.1Zm23.77-41.16,6.54-11.34H225.76Zm61.62-24.4,16.22-28.09H202l16.22,28.09Zm23.76-41.15L375.54,95.38H343.08L303,164.88l-.25.2-.09.11a6.12,6.12,0,0,1-.81.76,4.46,4.46,0,0,1-.62.5l-.23.14-.75.44-.29,0a6.24,6.24,0,0,1-1.25.33l-.19.08H218.23L202,195.57Zm-31.3-41.17L228.54,54.22H112.85l16.23,28.1h80l.3.09.35.06a6.17,6.17,0,0,1,.91.25l.42.16a3.53,3.53,0,0,1,.71.33l.5.28.21.22.3.26a5.18,5.18,0,0,1,.62.62,3.47,3.47,0,0,1,.3.37,4.12,4.12,0,0,1,.43.6l39.75,68.84Zm-47.54,0-6.54-11.33-6.55,11.33ZM119.4,147.88l16.23-28.11-40-69.31-.09-.34c-.11-.29-.17-.54-.22-.71a7.61,7.61,0,0,1-.2-.91,4.45,4.45,0,0,1-.08-.81,4.16,4.16,0,0,1,.13-1,6.08,6.08,0,0,1,.26-1.07,5.72,5.72,0,0,1,.53-1.13,6.2,6.2,0,0,1,.7-1,5.56,5.56,0,0,1,.81-.76,4,4,0,0,1,.82-.62l.5-.3.33-.08a5.19,5.19,0,0,1,.74-.23,6,6,0,0,1,.91-.2,4.34,4.34,0,0,1,.8-.08H232.31a4.7,4.7,0,0,1,1,.12,6.29,6.29,0,0,1,2.22.79,7.28,7.28,0,0,1,1,.72,5.76,5.76,0,0,1,.75.8,4.06,4.06,0,0,1,.62.83l59.74,103.46,16.23-28.1-40-69.32-.08-.33a5.71,5.71,0,0,1-.23-.73,6.49,6.49,0,0,1-.2-.9,4.45,4.45,0,0,1-.08-.81,4.16,4.16,0,0,1,.13-1,6.21,6.21,0,0,1,.25-1.06,7,7,0,0,1,.54-1.15,6.25,6.25,0,0,1,1.51-1.77,4.35,4.35,0,0,1,.82-.61l.5-.3.34-.08c.29-.11.54-.18.71-.23a6.69,6.69,0,0,1,.93-.2,4.34,4.34,0,0,1,.8-.08h167L430.6,13.06h-389Zm202.06-41.16L328,95.38H314.91Zm-178.29,0,6.54-11.34H136.62Z"/></g></g></svg>